<svg 
 xmlns="http://www.w3.org/2000/svg"
 xmlns:xlink="http://www.w3.org/1999/xlink"
 width="27px" height="29px">
<path fill-rule="evenodd"
 d="M20.391,15.459 C20.792,16.719 21.996,17.619 23.379,17.619 C25.104,17.619 26.528,16.199 26.528,14.459 C26.528,12.719 25.104,11.319 23.379,11.319 C21.996,11.319 20.792,12.219 20.391,13.459 L18.366,13.459 C18.264,13.76 18.102,12.711 17.885,12.379 L19.509,10.539 L19.509,8.679 L21.153,7.39 C21.735,7.599 22.517,7.939 23.379,7.939 C25.104,7.939 26.528,6.539 26.528,4.799 C26.528,3.59 25.104,1.639 23.379,1.639 C21.655,1.639 20.211,3.59 20.211,4.799 C20.211,4.919 20.211,5.19 20.251,5.139 L19.509,5.879 C19.509,5.419 19.208,5.19 18.767,4.919 L18.767,4.739 C18.767,4.739 18.727,4.599 18.647,4.559 C18.326,4.419 17.985,4.299 17.644,4.199 C17.564,4.199 17.504,4.99 17.504,3.999 L17.504,1.499 C17.504,0.939 17.62,0.499 16.501,0.499 L12.490,0.499 C11.929,0.499 11.488,0.939 11.488,1.499 L11.488,3.979 C11.488,3.979 11.428,4.159 11.347,4.179 C10.786,4.339 10.264,4.559 9.763,4.799 C9.683,4.839 9.583,4.799 9.522,4.759 L7.577,2.819 C7.176,2.419 6.555,2.419 6.154,2.819 L3.166,5.799 C2.785,6.179 2.785,6.819 3.166,7.199 L4.991,9.19 C4.991,9.19 5.71,9.179 5.31,9.259 C4.670,9.919 4.369,10.619 4.148,11.359 C4.128,11.439 4.48,11.499 3.948,11.499 L1.461,11.499 C0.900,11.499 0.458,11.939 0.458,12.499 L0.458,16.679 C0.458,17.239 0.900,17.679 1.461,17.679 L4.28,17.679 C4.28,17.679 4.208,17.739 4.228,17.819 C4.369,18.279 4.549,18.719 4.770,19.159 C4.810,19.219 4.770,19.319 4.730,19.379 L2.745,21.359 C2.344,21.759 2.344,22.379 2.745,22.779 L5.773,25.799 C6.154,26.179 6.795,26.179 7.176,25.799 L9.61,23.919 C9.61,23.919 9.222,23.839 9.302,23.899 C9.944,24.239 10.625,24.539 11.347,24.739 C11.428,24.779 11.488,24.859 11.488,24.939 L11.488,27.499 C11.488,28.59 11.929,28.499 12.490,28.499 L16.501,28.499 C17.62,28.499 17.504,28.59 17.504,27.499 L17.504,24.919 C17.504,24.819 17.564,24.759 17.644,24.719 C17.985,24.619 18.326,24.499 18.647,24.359 C18.727,24.339 18.767,24.259 18.767,24.179 L18.767,24.19 C19.208,23.899 19.509,23.519 19.509,23.59 L19.810,23.359 C19.910,23.479 20.50,23.559 20.211,23.599 L20.211,23.639 C20.211,25.379 21.635,26.799 23.379,26.799 C25.124,26.799 26.538,25.389 26.538,23.649 C26.538,21.910 25.124,20.499 23.379,20.499 C22.397,20.499 21.514,20.959 20.933,21.659 L19.509,20.239 L19.509,18.379 L17.925,16.579 C18.125,16.239 18.286,15.859 18.386,15.459 L20.391,15.459 L20.391,15.459 ZM23.379,13.319 C24.1,13.319 24.522,13.839 24.522,14.459 C24.522,15.79 24.1,15.619 23.379,15.619 C22.758,15.619 22.216,15.99 22.216,14.459 C22.216,13.819 22.738,13.319 23.379,13.319 ZM23.379,3.639 C24.1,3.639 24.522,4.159 24.522,4.799 C24.522,5.439 24.1,5.939 23.379,5.939 C22.758,5.939 22.216,5.419 22.216,4.799 C22.216,4.179 22.738,3.639 23.379,3.639 ZM23.379,22.499 C24.1,22.499 24.522,23.19 24.522,23.639 C24.522,24.259 24.1,24.799 23.379,24.799 C22.758,24.799 22.216,24.279 22.216,23.639 C22.216,22.999 22.738,22.499 23.379,22.499 ZM16.942,22.839 L15.639,23.219 C15.639,23.219 15.498,23.339 15.498,23.419 L15.498,26.299 C15.498,26.419 15.418,26.499 15.298,26.499 L13.694,26.499 C13.573,26.499 13.493,26.419 13.493,26.299 L13.493,23.439 C13.493,23.439 13.433,23.259 13.353,23.239 L12.49,22.859 C11.367,22.679 10.746,22.419 10.144,22.79 L8.961,21.399 C8.961,21.399 8.781,21.379 8.720,21.439 L7.738,22.399 L6.615,23.539 C6.615,23.539 6.414,23.599 6.334,23.539 L5.11,22.219 C5.11,22.219 4.930,21.999 5.11,21.919 L6.254,20.699 L7.176,19.779 C7.176,19.779 7.256,19.619 7.216,19.539 L6.615,18.379 C6.414,17.959 6.234,17.539 6.93,17.79 L5.692,15.819 C5.692,15.819 5.592,15.679 5.512,15.679 L2.664,15.679 C2.544,15.679 2.464,15.599 2.464,15.479 L2.464,13.699 C2.464,13.579 2.544,13.499 2.664,13.499 L5.472,13.499 C5.472,13.499 5.632,13.439 5.652,13.359 L6.33,12.59 C6.234,11.379 6.495,10.719 6.855,10.119 L7.537,8.939 C7.537,8.939 7.537,8.759 7.497,8.699 L6.515,7.719 L5.432,6.639 C5.432,6.639 5.371,6.439 5.432,6.359 L6.735,5.79 C6.735,5.79 6.936,4.999 7.16,5.79 L8.199,6.279 L9.121,7.199 C9.121,7.199 9.282,7.279 9.362,7.239 L10.525,6.639 C11.6,6.399 11.508,6.199 12.49,6.59 L13.353,5.679 C13.353,5.679 13.493,5.579 13.493,5.499 L13.493,2.699 C13.493,2.579 13.573,2.499 13.694,2.499 L15.298,2.499 C15.418,2.499 15.498,2.579 15.498,2.699 L15.498,5.499 C15.498,5.499 15.558,5.679 15.639,5.699 L16.942,6.79 C17.123,6.139 17.323,6.199 17.504,6.259 L17.504,9.799 L16.441,10.999 C14.503,9.930 12.62,10.630 10.990,12.563 C9.918,14.496 10.619,16.930 12.558,17.999 C13.151,18.326 13.818,18.499 14.496,18.499 C15.218,18.499 15.899,18.319 16.481,17.979 L17.504,19.139 L17.504,22.659 C17.323,22.719 17.123,22.779 16.942,22.839 L16.942,22.839 ZM16.501,14.459 L16.501,14.499 C16.501,15.19 16.300,15.499 15.980,15.859 C15.937,15.882 15.902,15.917 15.879,15.959 C15.70,16.718 13.797,16.679 13.36,15.872 C12.686,15.500 12.491,15.9 12.490,14.499 C12.479,13.395 13.368,12.490 14.476,12.479 C15.583,12.468 16.490,13.355 16.501,14.459 Z"/>
</svg>