<svg 
 xmlns="http://www.w3.org/2000/svg"
 xmlns:xlink="http://www.w3.org/1999/xlink"
 width="14px" height="11px">
<path fill-rule="evenodd"
 d="M13.61,0.610 L0.938,0.610 C0.422,0.610 0.4,1.28 0.4,1.543 L0.4,9.455 C0.4,9.971 0.422,10.389 0.938,10.389 L13.61,10.389 C13.576,10.389 13.995,9.971 13.995,9.455 L13.995,1.543 C13.995,1.27 13.577,0.610 13.61,0.610 ZM11.426,3.950 L7.248,6.359 C7.183,6.414 7.100,6.443 7.16,6.442 C6.932,6.443 6.849,6.414 6.785,6.359 L2.606,3.950 C2.439,3.854 2.380,3.642 2.478,3.473 C2.574,3.307 2.787,3.248 2.956,3.346 L7.16,5.686 L11.77,3.346 C11.245,3.248 11.458,3.307 11.555,3.473 C11.652,3.642 11.594,3.854 11.426,3.950 Z"/>
</svg>