<svg 
 xmlns="http://www.w3.org/2000/svg"
 xmlns:xlink="http://www.w3.org/1999/xlink"
 width="28px" height="29px">
<path fill-rule="evenodd"
 d="M15.539,22.246 L7.677,27.859 C7.153,28.233 6.424,28.111 6.50,27.587 C5.908,27.390 5.833,27.153 5.833,26.910 L5.833,25.342 C5.832,24.698 6.355,24.175 6.999,24.175 C7.415,24.175 7.800,24.397 8.8,24.756 L14.488,20.131 C14.707,19.973 14.976,19.896 15.246,19.914 L24.498,19.914 C25.147,19.914 25.666,19.395 25.666,18.748 L25.666,3.591 C25.666,2.942 25.150,2.425 24.510,2.425 L3.488,2.425 C2.847,2.428 2.329,2.950 2.333,3.591 L2.333,3.591 L2.333,18.748 C2.333,19.396 2.851,19.914 3.496,19.914 L6.416,19.914 C7.60,19.914 7.582,20.436 7.582,21.80 C7.582,21.724 7.60,22.246 6.416,22.246 L3.496,22.246 C1.566,22.247 0.1,20.685 0.0,18.756 C0.0,18.754 0.0,18.751 0.0,18.748 L0.0,3.591 C0.0,1.660 1.559,0.93 3.489,0.93 L24.510,0.93 C26.438,0.94 27.999,1.657 27.998,3.584 C27.998,3.586 27.998,3.588 27.998,3.591 L27.998,18.748 C27.998,20.681 26.435,22.246 24.498,22.246 L15.539,22.246 L15.539,22.246 ZM6.999,13.501 C5.410,13.501 4.122,12.757 4.122,11.169 C4.122,9.581 5.410,8.294 6.999,8.294 C6.999,8.294 6.999,8.294 6.999,8.838 C8.288,8.838 9.332,9.882 9.332,11.169 C9.332,12.457 8.288,13.501 6.999,13.501 L6.999,13.501 ZM20.998,13.501 C19.710,13.501 18.665,12.457 18.665,11.169 C18.665,9.882 19.710,8.838 20.998,8.838 C22.287,8.838 23.332,9.882 23.332,11.169 C23.332,12.457 22.287,13.501 20.998,13.501 L20.998,13.501 ZM13.999,13.501 C12.785,13.933 11.402,13.165 10.970,11.951 C10.538,10.738 11.172,9.405 12.386,8.973 C12.892,8.793 13.445,8.793 13.999,8.838 C15.287,8.838 16.332,9.882 16.332,11.169 C16.332,12.457 15.287,13.501 13.999,13.501 L13.999,13.501 Z"/>
</svg>
