<svg 
 xmlns="http://www.w3.org/2000/svg"
 xmlns:xlink="http://www.w3.org/1999/xlink"
 width="29px" height="29px">
<path fill-rule="evenodd" 
 d="M24.580,14.749 C25.677,16.317 26.588,17.875 27.247,19.361 C27.980,21.14 28.384,22.512 28.448,23.815 C28.542,25.765 27.836,26.905 27.227,27.516 C26.651,28.86 25.615,28.747 23.880,28.747 C23.769,28.747 23.654,28.744 23.536,28.737 C22.238,28.673 20.744,28.268 19.96,27.533 C17.616,26.874 16.62,25.962 14.501,24.863 C12.938,25.962 11.384,26.875 9.903,27.536 C8.254,28.271 6.761,28.676 5.462,28.741 C5.345,28.744 5.230,28.747 5.119,28.747 C3.384,28.747 2.347,28.86 1.776,27.513 C1.167,26.902 0.460,25.761 0.555,23.811 C0.618,22.509 1.22,21.11 1.755,19.358 C2.413,17.874 3.322,16.316 4.419,14.750 C3.322,13.183 2.411,11.625 1.752,10.140 C1.19,8.487 0.615,6.989 0.551,5.687 C0.457,3.737 1.163,2.597 1.772,1.986 C2.381,1.375 3.515,0.667 5.462,0.761 C6.761,0.825 8.254,1.230 9.903,1.965 C11.382,2.626 12.934,3.539 14.496,4.638 C16.59,3.537 17.614,2.623 19.96,1.962 C20.744,1.227 22.238,0.822 23.537,0.758 C25.481,0.663 26.618,1.372 27.227,1.982 C27.836,2.593 28.542,3.733 28.448,5.684 C28.384,6.986 27.980,8.484 27.247,10.137 C26.588,11.623 25.677,13.182 24.580,14.749 ZM20.173,25.107 C21.629,25.758 22.924,26.89 23.893,26.89 C24.546,26.89 25.47,25.937 25.353,25.633 C26.113,24.871 25.911,22.880 24.828,20.438 C24.333,19.322 23.680,18.155 22.898,16.971 C21.998,18.75 21.21,19.170 19.964,20.232 C18.908,21.292 17.817,22.272 16.717,23.174 C17.898,23.958 19.61,24.611 20.173,25.107 ZM21.290,14.751 C20.336,13.535 19.263,12.322 18.90,11.146 C16.919,9.971 15.711,8.896 14.499,7.939 C13.287,8.896 12.77,9.971 10.905,11.146 C9.736,12.320 8.664,13.532 7.711,14.747 C8.665,15.963 9.737,17.177 10.908,18.352 C12.80,19.527 13.289,20.602 14.500,21.559 C15.712,20.602 16.922,19.526 18.94,18.352 C19.265,17.178 20.337,15.966 21.290,14.751 ZM4.174,20.438 C3.91,22.880 2.889,24.871 3.649,25.633 C4.409,26.396 6.394,26.193 8.830,25.107 C9.941,24.611 11.104,23.958 12.284,23.174 C11.183,22.272 10.92,21.292 9.35,20.232 C7.978,19.170 7.1,18.75 6.102,16.971 C5.320,18.155 4.668,19.322 4.174,20.438 ZM8.826,4.391 C7.370,3.740 6.75,3.409 5.109,3.409 C4.457,3.409 3.955,3.561 3.649,3.865 C2.889,4.628 3.91,6.618 4.174,9.61 C4.669,10.176 5.321,11.342 6.103,12.525 C7.2,11.422 7.978,10.327 9.35,9.267 C10.92,8.207 11.182,7.227 12.283,6.325 C11.102,5.541 9.939,4.887 8.826,4.391 ZM25.353,3.865 C25.47,3.558 24.542,3.409 23.890,3.409 C22.921,3.409 21.626,3.744 20.169,4.391 C19.57,4.889 17.894,5.543 16.713,6.328 C17.814,7.230 18.906,8.210 19.964,9.270 C21.22,10.331 21.999,11.425 22.899,12.530 C23.681,11.345 24.334,10.177 24.828,9.61 C25.911,6.618 26.113,4.628 25.353,3.865 Z"/>
</svg>