<svg 
 xmlns="http://www.w3.org/2000/svg"
 xmlns:xlink="http://www.w3.org/1999/xlink"
 width="28px" height="29px">
<path fill-rule="evenodd" 
 d="M25.914,9.223 C25.758,9.326 25.581,9.376 25.405,9.376 C25.105,9.376 24.808,9.229 24.628,8.959 C24.346,8.532 24.464,7.955 24.890,7.673 C25.670,7.158 26.137,6.293 26.137,5.357 C26.137,3.830 24.893,2.585 23.367,2.585 C22.308,2.585 21.329,3.203 20.867,4.157 C20.643,4.618 20.90,4.813 19.629,4.592 C19.167,4.368 18.973,3.815 19.193,3.353 C19.961,1.758 21.596,0.729 23.367,0.729 C25.917,0.729 27.993,2.806 27.993,5.357 C27.993,6.917 27.217,8.361 25.914,9.223 ZM22.996,5.484 C23.449,5.910 23.643,6.525 23.517,7.134 L22.458,12.242 C22.96,13.987 22.102,15.756 22.473,17.500 L23.502,22.317 C23.634,22.932 23.425,23.580 22.958,24.0 C22.628,24.300 22.202,24.459 21.770,24.459 C21.590,24.459 21.408,24.433 21.232,24.374 L17.814,23.277 C15.264,22.459 12.567,22.459 10.14,23.273 L6.638,24.356 C6.20,24.553 5.347,24.401 4.879,23.953 C4.412,23.509 4.220,22.844 4.385,22.217 L5.491,18.7 C6.50,15.882 6.50,13.637 5.491,11.513 L4.365,7.228 C4.203,6.613 4.373,5.978 4.823,5.528 C5.273,5.78 5.909,4.907 6.523,5.66 L10.773,6.178 C12.932,6.743 15.214,6.734 17.370,6.143 L21.317,5.66 C21.917,4.901 22.543,5.57 22.996,5.484 ZM17.982,8.382 C15.435,9.76 12.738,9.91 10.185,8.423 L6.850,7.552 L7.735,10.924 C8.394,13.434 8.394,16.88 7.735,18.598 L6.882,21.838 L9.303,21.61 C10.811,20.578 12.358,20.337 13.908,20.337 C15.461,20.337 17.11,20.578 18.520,21.64 L21.34,21.870 L20.205,17.983 C19.767,15.923 19.761,13.831 20.187,11.769 L21.64,7.540 L17.982,8.382 ZM13.826,18.577 C11.741,18.577 10.41,16.880 10.41,14.790 C10.41,12.701 11.738,11.4 13.826,11.4 C15.914,11.4 17.611,12.701 17.611,14.790 C17.611,16.880 15.911,18.577 13.826,18.577 ZM13.826,12.860 C12.764,12.860 11.900,13.725 11.900,14.790 C11.900,15.853 12.764,16.718 13.826,16.718 C14.888,16.718 15.752,15.853 15.752,14.790 C15.752,13.725 14.888,12.860 13.826,12.860 ZM8.285,4.274 C7.844,4.536 7.273,4.389 7.15,3.948 C6.517,3.109 5.603,2.585 4.629,2.585 C3.103,2.585 1.859,3.827 1.859,5.357 C1.859,6.328 2.353,7.211 3.179,7.720 C3.615,7.988 3.753,8.561 3.485,8.997 C3.312,9.285 3.6,9.441 2.694,9.441 C2.529,9.441 2.362,9.397 2.209,9.303 C0.827,8.452 0.3,6.978 0.3,5.357 C0.3,2.806 2.79,0.729 4.629,0.729 C6.256,0.729 7.782,1.599 8.611,3.0 C8.873,3.442 8.726,4.12 8.285,4.274 ZM2.197,19.701 C2.632,19.431 3.206,19.566 3.473,20.2 C3.744,20.437 3.609,21.11 3.174,21.282 C2.350,21.791 1.859,22.673 1.859,23.641 C1.859,25.168 3.103,26.413 4.629,26.413 C5.409,26.413 6.159,26.81 6.682,25.501 C7.26,25.121 7.614,25.92 7.994,25.436 C8.373,25.780 8.403,26.369 8.59,26.748 C7.182,27.717 5.932,28.270 4.629,28.270 C2.79,28.270 0.3,26.192 0.3,23.641 C0.3,22.26 0.824,20.555 2.197,19.701 ZM21.387,25.580 C21.914,26.119 22.617,26.413 23.367,26.413 C24.893,26.413 26.137,25.171 26.137,23.641 C26.137,22.709 25.673,21.843 24.893,21.329 C24.467,21.46 24.349,20.469 24.631,20.43 C24.914,19.616 25.490,19.498 25.917,19.781 C27.219,20.640 27.996,22.85 27.996,23.641 C27.996,26.196 25.919,28.270 23.370,28.270 C22.114,28.270 20.940,27.775 20.61,26.878 C19.702,26.510 19.708,25.925 20.76,25.566 C20.443,25.207 21.28,25.213 21.387,25.580 Z"/>
</svg>