<svg 
 xmlns="http://www.w3.org/2000/svg"
 xmlns:xlink="http://www.w3.org/1999/xlink"
 width="28px" height="31px">
<path fill-rule="evenodd"
 d="M13.998,2.592 C13.82,2.592 12.181,2.888 9.932,3.658 L9.135,3.931 C7.29,4.654 5.493,5.182 4.415,5.620 C4.2,5.781 3.600,5.969 3.212,6.183 C3.111,6.241 3.14,6.306 2.922,6.377 C2.895,6.398 2.869,6.422 2.846,6.447 C2.828,6.480 2.813,6.515 2.801,6.551 C2.773,6.629 2.743,6.740 2.714,6.896 C2.638,7.339 2.592,7.785 2.574,8.234 C2.510,9.407 2.510,11.45 2.510,13.290 L2.510,15.487 C2.510,22.708 7.899,26.263 11.490,27.834 C12.7,28.60 12.306,28.189 12.639,28.274 C12.956,28.356 13.343,28.406 13.998,28.406 C14.652,28.406 15.39,28.356 15.357,28.274 C15.691,28.190 15.989,28.60 16.506,27.834 C20.98,26.262 25.485,22.708 25.485,15.487 L25.485,13.290 C25.485,11.45 25.485,9.407 25.421,8.234 C25.404,7.785 25.357,7.339 25.282,6.896 C25.261,6.779 25.232,6.664 25.194,6.551 C25.183,6.515 25.168,6.480 25.150,6.447 C25.126,6.422 25.101,6.398 25.73,6.377 C24.982,6.305 24.885,6.240 24.784,6.182 C24.395,5.969 23.994,5.781 23.580,5.621 C22.503,5.182 20.967,4.654 18.860,3.933 L18.62,3.658 C15.815,2.888 14.914,2.592 13.998,2.592 ZM9.435,1.616 C11.446,0.927 12.693,0.499 13.998,0.499 C15.304,0.499 16.550,0.927 18.561,1.616 L18.739,1.678 L19.573,1.964 C21.635,2.671 23.228,3.218 24.367,3.682 C24.941,3.915 25.435,4.142 25.832,4.372 C26.215,4.596 26.598,4.873 26.858,5.246 C27.116,5.613 27.249,6.65 27.333,6.502 C27.421,6.954 27.472,7.497 27.507,8.120 C27.574,9.357 27.574,11.53 27.574,13.253 L27.574,15.487 C27.574,24.0 21.158,28.81 17.342,29.753 L17.305,29.768 C16.831,29.976 16.386,30.170 15.875,30.301 C15.336,30.441 14.762,30.500 13.998,30.500 C13.232,30.500 12.661,30.441 12.121,30.301 C11.610,30.170 11.164,29.976 10.691,29.768 L10.653,29.753 C6.838,28.81 0.422,24.0 0.422,15.485 L0.422,13.253 C0.422,11.53 0.422,9.357 0.489,8.119 C0.523,7.497 0.575,6.954 0.663,6.500 C0.746,6.65 0.880,5.613 1.136,5.244 C1.398,4.873 1.781,4.596 2.164,4.372 C2.560,4.142 3.55,3.915 3.628,3.682 C4.767,3.218 6.360,2.671 8.423,1.965 L9.257,1.678 L9.435,1.616 ZM13.998,7.476 C9.576,7.476 5.991,11.68 5.991,15.499 C5.991,19.930 9.576,23.522 13.998,23.522 C18.420,23.522 22.4,19.930 22.4,15.499 C22.4,11.68 18.420,7.476 13.998,7.476 ZM13.998,9.569 C14.3,9.569 14.27,9.569 14.76,9.594 C14.165,9.642 14.245,9.706 14.313,9.781 C14.525,10.1 14.769,10.382 14.998,10.954 C15.223,11.518 15.410,12.212 15.541,13.0 C15.617,13.466 15.673,13.953 15.705,14.453 L12.291,14.453 C12.323,13.953 12.378,13.466 12.455,13.1 C12.563,12.302 12.745,11.615 12.998,10.954 C13.226,10.382 13.471,10.1 13.683,9.781 C13.751,9.706 13.831,9.642 13.920,9.594 C13.944,9.579 13.970,9.571 13.998,9.569 ZM17.798,14.453 C17.764,13.851 17.699,13.252 17.601,12.658 C17.480,11.889 17.286,11.134 17.24,10.402 C18.499,11.281 19.520,12.759 19.822,14.453 L17.799,14.453 L17.798,14.453 ZM15.705,16.546 C15.674,17.32 15.619,17.516 15.541,17.997 C15.433,18.696 15.251,19.383 14.998,20.44 C14.769,20.616 14.524,20.997 14.313,21.217 C14.245,21.292 14.165,21.356 14.76,21.405 C14.52,21.419 14.25,21.427 13.998,21.430 C13.992,21.430 13.969,21.430 13.920,21.405 C13.831,21.356 13.751,21.292 13.683,21.217 C13.470,20.997 13.226,20.616 12.998,20.44 C12.745,19.383 12.563,18.698 12.455,17.998 C12.376,17.517 12.321,17.32 12.291,16.546 L15.705,16.546 L15.705,16.546 ZM17.24,20.596 C17.274,19.918 17.466,19.154 17.601,18.340 C17.696,17.761 17.763,17.158 17.796,16.546 L19.822,16.546 C19.520,18.239 18.499,19.717 17.24,20.596 ZM10.972,20.596 C9.497,19.717 8.476,18.239 8.173,16.546 L10.197,16.546 C10.231,17.158 10.298,17.761 10.393,18.340 C10.514,19.109 10.708,19.864 10.971,20.596 L10.972,20.596 ZM8.173,14.453 C8.476,12.759 9.497,11.281 10.972,10.402 C10.709,11.134 10.516,11.889 10.394,12.658 C10.300,13.237 10.233,13.840 10.199,14.453 L8.172,14.453 L8.173,14.453 Z"/>
</svg>