<svg 
 xmlns="http://www.w3.org/2000/svg"
 xmlns:xlink="http://www.w3.org/1999/xlink"
 width="26px" height="28px">
<path fill-rule="evenodd"
 d="M21.102,23.269 L12.998,28.0 L4.895,23.269 C2.115,21.648 0.416,18.730 0.416,15.576 L0.416,0.2 L25.581,0.2 L25.581,15.576 C25.581,18.728 23.880,21.648 21.102,23.269 ZM23.294,2.223 L2.703,2.223 L2.703,15.576 C2.703,17.946 3.982,20.143 6.72,21.362 L12.998,25.406 L19.926,21.363 C22.2,20.168 23.284,17.965 23.294,15.577 L23.294,2.223 ZM6.217,12.404 L7.833,10.830 L11.601,14.494 L18.162,8.112 L19.780,9.686 L11.601,17.642 L6.217,12.404 Z"/>
</svg>