<svg 
 xmlns="http://www.w3.org/2000/svg"
 xmlns:xlink="http://www.w3.org/1999/xlink"
 width="15px" height="15px">
<path fill-rule="evenodd" 
 d="M10.702,14.120 C9.719,14.84 6.934,13.700 4.18,10.785 C1.102,7.870 0.718,5.85 0.681,4.104 C0.626,2.605 1.774,1.150 3.100,0.582 C3.425,0.442 3.800,0.483 4.86,0.690 C5.177,1.486 5.931,2.688 6.578,3.635 C6.872,4.66 6.798,4.648 6.404,4.990 L5.71,5.978 C4.938,6.75 4.897,6.254 4.974,6.398 C5.276,6.946 5.812,7.762 6.426,8.376 C7.41,8.990 7.896,9.562 8.482,9.896 C8.634,9.982 8.827,9.933 8.921,9.787 L9.787,8.468 C10.119,8.28 10.738,7.929 11.191,8.243 C12.151,8.906 13.272,9.646 14.92,10.697 C14.325,10.995 14.360,11.385 14.221,11.709 C13.650,13.41 12.204,14.175 10.701,14.120 L10.702,14.120 Z"/>
</svg>